<?xml version="1.0" encoding="utf-8"?>
<!-- Generator: Adobe Illustrator 25.2.1, SVG Export Plug-In . SVG Version: 6.00 Build 0)  -->
<svg version="1.1" id="Calque_1" xmlns="http://www.w3.org/2000/svg" xmlns:xlink="http://www.w3.org/1999/xlink" x="0px" y="0px"
	 viewBox="0 0 152.3 84.8" style="enable-background:new 0 0 152.3 84.8;" xml:space="preserve">
<style type="text/css">
	.st0{fill:#000094;}
</style>
<g transform="translate(34.446 21.659)">
	<path class="st0" d="M38.8,47.6h-5c-0.5,0-1,0.4-1,1c0,0.5,0.4,1,1,1h5c0.5,0,1-0.4,1-1C39.7,48.1,39.3,47.7,38.8,47.6z"/>
	<g transform="translate(95.629 0.04)">
		<path class="st0" d="M-30.4-16.6c-0.3,0-0.6-0.1-0.8-0.3l-2.9-2.9c-0.4-0.4-0.4-1.1,0-1.6c0.4-0.4,1.1-0.4,1.6,0l2.9,2.9
			c0.4,0.4,0.4,1.1,0,1.6C-29.9-16.7-30.2-16.5-30.4-16.6z"/>
	</g>
	<g transform="translate(147.152 0.04)">
		<path class="st0" d="M-33.4-16.6c-0.3,0-0.6-0.1-0.8-0.3c-0.4-0.4-0.4-1.1,0-1.6l2.9-2.9c0.4-0.4,1.1-0.4,1.6,0
			c0.4,0.4,0.4,1.1,0,1.6l0,0l-2.9,2.9C-32.8-16.7-33.1-16.5-33.4-16.6z"/>
	</g>
	<g transform="translate(95.629 51.563)">
		<path class="st0" d="M-33.4-16.6c-0.3,0-0.6-0.1-0.8-0.3c-0.4-0.4-0.4-1.1,0-1.6l2.9-2.9c0.4-0.4,1.1-0.4,1.6,0
			c0.4,0.4,0.4,1.1,0,1.6l-2.9,2.9C-32.8-16.7-33.1-16.5-33.4-16.6z"/>
	</g>
	<g transform="translate(147.152 51.563)">
		<path class="st0" d="M-30.4-16.6c-0.3,0-0.6-0.1-0.8-0.3l-2.9-2.9c-0.4-0.4-0.4-1.1,0-1.6c0.4-0.4,1.1-0.4,1.6,0l2.9,2.9
			c0.4,0.4,0.4,1.1,0,1.6C-29.9-16.7-30.2-16.5-30.4-16.6z"/>
	</g>
	<g transform="translate(136.808 41.219)">
		<path class="st0" d="M-30.2-16.3c-0.3,0-0.6-0.1-0.8-0.3l-3.2-3.2c-0.4-0.4-0.4-1.1,0-1.6c0.4-0.4,1.1-0.4,1.6,0l3.2,3.2
			c0.4,0.4,0.4,1.1,0,1.6C-29.6-16.4-29.9-16.3-30.2-16.3z"/>
	</g>
	<g transform="translate(106.518 0)">
		<path class="st0" d="M-31.2-15.8c-0.4,0-0.8-0.2-1-0.6l-2.1-3.5c-0.3-0.5-0.1-1.2,0.4-1.6c0.5-0.3,1.2-0.1,1.6,0.4l2.1,3.5
			c0.3,0.5,0.1,1.2-0.4,1.6C-30.8-15.9-31-15.9-31.2-15.8z"/>
	</g>
	<g transform="translate(117.472 0.025)">
		<path class="st0" d="M-32.6-15.4c-0.5,0-1-0.4-1.1-0.9l-0.8-4.1c-0.1-0.6,0.3-1.2,0.9-1.3c0.6-0.1,1.2,0.3,1.3,0.9l0.8,4.1
			c0.1,0.6-0.3,1.2-0.9,1.3L-32.6-15.4z"/>
	</g>
	<g transform="translate(117.134 10.128)">
		<path class="st0" d="M-32-15.5c-0.5,0-0.9-0.3-1.1-0.8l-1.3-3.9c-0.2-0.6,0.1-1.2,0.7-1.4c0.6-0.2,1.2,0.1,1.4,0.7c0,0,0,0,0,0
			l1.3,3.9c0.2,0.5-0.1,1.2-0.6,1.4c0,0,0,0,0,0C-31.9-15.6-31.9-15.5-32-15.5z"/>
	</g>
	<g transform="translate(137.061)">
		<path class="st0" d="M-33.3-15.8c-0.2,0-0.4-0.1-0.6-0.2c-0.5-0.3-0.7-1-0.4-1.6l2.1-3.5c0.3-0.5,1-0.7,1.6-0.4
			c0.5,0.3,0.7,1,0.4,1.6l-2.1,3.5C-32.6-16.1-32.9-15.9-33.3-15.8z"/>
	</g>
	<g transform="translate(127.523 0.025)">
		<path class="st0" d="M-33.4-15.4h-0.2c-0.6-0.1-1-0.7-0.9-1.3l0.8-4.1c0.1-0.6,0.7-1,1.3-0.9c0.6,0.1,1,0.7,0.9,1.3l-0.8,4.1
			C-32.4-15.7-32.8-15.4-33.4-15.4z"/>
	</g>
	<g transform="translate(127.185 10.128)">
		<path class="st0" d="M-33.3-15.5c-0.1,0-0.3,0-0.4-0.1c-0.6-0.2-0.9-0.8-0.7-1.3c0,0,0,0,0,0l1.3-3.9c0.2-0.6,0.8-0.9,1.4-0.7
			c0.6,0.2,0.9,0.8,0.7,1.4c0,0,0,0,0,0l-1.3,3.9C-32.4-15.8-32.8-15.5-33.3-15.5z"/>
	</g>
	<g transform="translate(106.518 50.84)">
		<path class="st0" d="M-33.3-15.8c-0.2,0-0.4-0.1-0.6-0.2c-0.5-0.3-0.7-1-0.4-1.6l2.1-3.5c0.3-0.5,1-0.7,1.6-0.4
			c0.5,0.3,0.7,1,0.4,1.6l-2.1,3.5C-32.6-16.1-32.9-15.8-33.3-15.8z"/>
	</g>
	<g transform="translate(117.375 50.377)">
		<path class="st0" d="M-33.4-15.4h-0.2c-0.6-0.1-1-0.7-0.9-1.3l0.8-4.1c0.1-0.6,0.7-1,1.3-0.9c0.6,0.1,1,0.7,0.9,1.3l-0.8,4.1
			C-32.4-15.7-32.8-15.4-33.4-15.4z"/>
	</g>
	<g transform="translate(117.134 40.476)">
		<path class="st0" d="M-33.3-15.5c-0.1,0-0.3,0-0.4-0.1c-0.6-0.2-0.9-0.8-0.7-1.3c0,0,0,0,0,0l1.3-3.9c0.2-0.6,0.8-0.9,1.4-0.7
			c0.6,0.2,0.9,0.8,0.7,1.4c0,0,0,0,0,0l-1.3,3.9C-32.5-15.8-32.9-15.5-33.3-15.5z"/>
	</g>
	<g transform="translate(136.963 50.84)">
		<path class="st0" d="M-31.2-15.8c-0.4,0-0.8-0.2-1-0.6l-2.1-3.5c-0.3-0.5-0.1-1.2,0.4-1.6c0.5-0.3,1.2-0.1,1.6,0.4l0,0l2.1,3.5
			c0.3,0.5,0.1,1.2-0.4,1.6C-30.8-15.9-31-15.8-31.2-15.8z"/>
	</g>
	<g transform="translate(127.523 50.377)">
		<path class="st0" d="M-32.6-15.4c-0.5,0-1-0.4-1.1-0.9l-0.8-4.1c-0.1-0.6,0.3-1.2,0.9-1.3c0.6-0.1,1.2,0.3,1.3,0.9l0,0l0.8,4.1
			c0.1,0.6-0.3,1.2-0.9,1.3L-32.6-15.4z"/>
	</g>
	<g transform="translate(127.283 40.476)">
		<path class="st0" d="M-32-15.5c-0.5,0-0.9-0.3-1.1-0.8l-1.3-3.9c-0.2-0.6,0.1-1.2,0.7-1.4c0.6-0.2,1.2,0.1,1.3,0.7l1.3,3.9
			c0.2,0.5-0.1,1.2-0.6,1.4c0,0,0,0,0,0C-31.8-15.5-31.9-15.5-32-15.5z"/>
	</g>
	<g transform="translate(137.101 41.512)">
		<path class="st0" d="M-30.4-16.6c-0.3,0-0.6-0.1-0.8-0.3l-2.9-2.9c-0.4-0.4-0.4-1.1,0-1.6c0.4-0.4,1.1-0.4,1.6,0l2.9,2.9
			c0.4,0.4,0.4,1.1,0,1.6C-29.9-16.7-30.2-16.5-30.4-16.6z"/>
	</g>
	<g transform="translate(146.526 10.831)">
		<path class="st0" d="M-33.3-17.2c-0.4,0-0.8-0.2-1-0.6c-0.3-0.5-0.1-1.2,0.4-1.6l3.5-2.1c0.5-0.3,1.2-0.1,1.6,0.4
			c0.3,0.5,0.1,1.2-0.4,1.6l-3.5,2.1C-32.9-17.3-33.1-17.2-33.3-17.2z"/>
	</g>
	<g transform="translate(145.966 21.883)">
		<path class="st0" d="M-33.4-18.7c-0.5,0-1-0.4-1.1-0.9c-0.1-0.6,0.3-1.2,0.9-1.3l4.1-0.8c0.6-0.1,1.2,0.3,1.3,0.9
			c0.1,0.6-0.3,1.2-0.9,1.3l0,0l-4.1,0.8H-33.4z"/>
	</g>
	<g transform="translate(136.065 21.545)">
		<path class="st0" d="M-33.3-18.2c-0.5,0-0.9-0.3-1.1-0.8c-0.2-0.5,0.1-1.2,0.6-1.4c0,0,0,0,0,0l3.9-1.3c0.6-0.2,1.2,0.1,1.4,0.7
			c0.2,0.6-0.1,1.2-0.7,1.4c0,0,0,0,0,0l-3.9,1.3C-33.1-18.2-33.2-18.1-33.3-18.2z"/>
	</g>
	<g transform="translate(146.526 41.374)">
		<path class="st0" d="M-29.8-17.2c-0.2,0-0.4-0.1-0.6-0.2l-3.5-2.1c-0.5-0.3-0.7-1-0.4-1.6c0.3-0.5,1-0.7,1.6-0.4l3.5,2.1
			c0.5,0.3,0.7,1,0.4,1.6C-29-17.4-29.4-17.2-29.8-17.2z"/>
	</g>
	<g transform="translate(145.966 31.934)">
		<path class="st0" d="M-29.3-18.7h-0.2l-4.1-0.8c-0.6-0.1-1-0.7-0.9-1.3c0.1-0.6,0.7-1,1.3-0.9l4.1,0.8c0.6,0.1,1,0.7,0.9,1.3
			C-28.3-19.1-28.8-18.7-29.3-18.7z"/>
	</g>
	<g transform="translate(136.065 31.693)">
		<path class="st0" d="M-29.4-18.2c-0.1,0-0.3,0-0.4-0.1l-3.9-1.3c-0.6-0.2-0.9-0.8-0.7-1.4s0.8-0.9,1.4-0.7c0,0,0,0,0,0l3.9,1.3
			c0.6,0.2,0.9,0.8,0.7,1.3c0,0,0,0,0,0C-28.5-18.5-28.9-18.1-29.4-18.2z"/>
	</g>
	<g transform="translate(95.687 10.831)">
		<path class="st0" d="M-29.8-17.2c-0.2,0-0.4-0.1-0.6-0.2l-3.5-2.1c-0.5-0.3-0.7-1-0.4-1.6c0.3-0.5,1-0.7,1.6-0.4l3.5,2.1
			c0.5,0.3,0.7,1,0.4,1.6C-29.1-17.5-29.4-17.2-29.8-17.2z"/>
	</g>
	<g transform="translate(95.614 21.883)">
		<path class="st0" d="M-29.3-18.7h-0.2l-4.1-0.8c-0.6-0.1-1-0.7-0.9-1.3c0.1-0.6,0.7-1,1.3-0.9l4.1,0.8c0.6,0.1,1,0.7,0.9,1.3
			C-28.3-19.1-28.8-18.7-29.3-18.7z"/>
	</g>
	<g transform="translate(105.717 21.545)">
		<path class="st0" d="M-29.4-18.2c-0.1,0-0.3,0-0.4-0.1l-3.9-1.3c-0.6-0.2-0.9-0.8-0.7-1.4c0.2-0.6,0.8-0.9,1.3-0.7l3.9,1.3
			c0.6,0.2,0.9,0.8,0.7,1.3c0,0,0,0,0,0C-28.5-18.5-28.9-18.2-29.4-18.2z"/>
	</g>
	<g transform="translate(95.589 41.374)">
		<path class="st0" d="M-33.3-17.2c-0.4,0-0.8-0.2-1-0.6c-0.3-0.5-0.1-1.2,0.4-1.6l3.5-2.1c0.5-0.3,1.2-0.1,1.6,0.4
			c0.3,0.5,0.1,1.2-0.4,1.6l-3.5,2.1C-32.9-17.3-33.1-17.2-33.3-17.2z"/>
	</g>
	<g transform="translate(95.614 31.934)">
		<path class="st0" d="M-33.4-18.7c-0.5,0-1-0.4-1.1-0.9c-0.1-0.6,0.3-1.2,0.9-1.3l4.1-0.8c0.6-0.1,1.2,0.3,1.3,0.9
			c0.1,0.6-0.3,1.2-0.9,1.3l-4.1,0.8L-33.4-18.7z"/>
	</g>
	<g transform="translate(105.62 31.693)">
		<path class="st0" d="M-33.3-18.2c-0.5,0-0.9-0.3-1.1-0.8c-0.2-0.5,0.1-1.2,0.6-1.4c0,0,0,0,0,0l3.9-1.3c0.6-0.2,1.2,0.1,1.4,0.7
			c0.2,0.6-0.1,1.2-0.7,1.4c0,0,0,0,0,0l-3.9,1.3C-33-18.2-33.2-18.2-33.3-18.2z"/>
	</g>
	<g transform="translate(115.17 19.58)">
		<path class="st0" d="M-29.3-14.2c-0.6,0-1.2-0.2-1.6-0.7l-2.9-2.9c-0.9-0.9-0.9-2.3,0-3.1s2.3-0.9,3.1,0l2.9,2.9
			c0.9,0.8,0.9,2.2,0,3.1c0,0,0,0,0,0C-28.1-14.5-28.7-14.2-29.3-14.2z"/>
	</g>
	<g transform="translate(125.318 19.58)">
		<path class="st0" d="M-32.2-14.2c-0.6,0-1.2-0.2-1.6-0.7c-0.9-0.8-0.9-2.2,0-3.1c0,0,0,0,0,0l2.9-2.9c0.9-0.9,2.3-0.9,3.1,0
			s0.9,2.3,0,3.1l-2.9,2.9C-31.1-14.5-31.6-14.2-32.2-14.2z"/>
	</g>
	<g transform="translate(115.17 29.631)">
		<path class="st0" d="M-32.2-14.2c-0.6,0-1.2-0.2-1.6-0.7c-0.9-0.8-0.9-2.2,0-3.1c0,0,0,0,0,0l2.9-2.9c0.9-0.9,2.3-0.9,3.1,0
			s0.9,2.3,0,3.1l-2.9,2.9C-31.1-14.5-31.6-14.2-32.2-14.2z"/>
	</g>
	<g transform="translate(125.318 29.631)">
		<path class="st0" d="M-29.3-14.2c-0.6,0-1.2-0.2-1.6-0.7l-2.9-2.9c-0.9-0.9-0.9-2.3,0-3.1s2.3-0.9,3.1,0l2.9,2.9
			c0.9,0.8,0.9,2.2,0,3.1c0,0,0,0,0,0C-28.1-14.5-28.7-14.2-29.3-14.2z"/>
	</g>
	<path class="st0" d="M49.3,48.5l6.5-6.5c0.4-0.4,0.4-1.1,0-1.6s-1.1-0.4-1.6,0l-6.5,6.5l-6.5-6.5c-0.4-0.4-1.1-0.4-1.6,0
		s-0.4,1.1,0,1.6l6.5,6.5L39.6,55c-0.4,0.4-0.4,1.1,0,1.6c0.4,0.4,1.1,0.4,1.6,0l6.5-6.5l6.5,6.5c0.4,0.4,1.1,0.4,1.6,0
		c0.4-0.4,0.4-1.1,0-1.6L49.3,48.5z"/>
	<g transform="translate(105.68 41.512)">
		<path class="st0" d="M-33.4-16.6c-0.3,0-0.6-0.1-0.8-0.3c-0.4-0.4-0.4-1.1,0-1.6l2.9-2.9c0.4-0.4,1.1-0.4,1.6,0
			c0.4,0.4,0.4,1.1,0,1.6l0,0l-2.9,2.9C-32.8-16.7-33.1-16.5-33.4-16.6z"/>
	</g>
	<g transform="translate(105.68 10.091)">
		<path class="st0" d="M-30.4-16.6c-0.3,0-0.6-0.1-0.8-0.3l-2.9-2.9c-0.4-0.4-0.4-1.1,0-1.6c0.4-0.4,1.1-0.4,1.6,0l2.9,2.9
			c0.4,0.4,0.4,1.1,0,1.6C-29.9-16.7-30.2-16.5-30.4-16.6z"/>
	</g>
	<g transform="translate(137.101 10.091)">
		<path class="st0" d="M-33.4-16.6c-0.3,0-0.6-0.1-0.8-0.3c-0.4-0.4-0.4-1.1,0-1.6l2.9-2.9c0.4-0.4,1.1-0.4,1.6,0
			c0.4,0.4,0.4,1.1,0,1.6l-2.9,2.9C-32.8-16.7-33.1-16.5-33.4-16.6z"/>
	</g>
	<path class="st0" d="M0.1,40.4c-0.6,0-1.1,0.5-1.1,1.1v1.5c-1.4-1.6-3.5-2.5-5.7-2.5c-4.6,0.3-8.1,4.2-7.8,8.8
		c0.3,4.2,3.6,7.5,7.8,7.8c2.2,0,4.2-0.9,5.7-2.5v1.5c0,0.6,0.5,1.1,1.1,1.1s1.1-0.5,1.1-1.1V41.4c0-0.6-0.4-1-1-1.1
		C0.2,40.4,0.1,40.4,0.1,40.4z M-6.6,54.7c-3.2-0.1-5.8-2.8-5.7-6.1c-0.1-3.2,2.4-6,5.7-6.1c3.4,0.2,5.9,3.2,5.7,6.5
		C-1.2,52.1-3.6,54.5-6.6,54.7L-6.6,54.7z"/>
	<g transform="translate(41.081 56.344)">
		<path class="st0" d="M-33.4-21.6c-0.6,0-1.1,0.5-1.1,1.1v0.8c0,0.6,0.5,1.1,1.1,1.2c0.6,0,1.2-0.5,1.2-1.2v-0.8
			C-32.2-21.2-32.7-21.6-33.4-21.6C-33.4-21.6-33.4-21.6-33.4-21.6z"/>
		<path class="st0" d="M-33.4-16c-0.6,0-1.1,0.5-1.1,1.1v14.3c0,0.6,0.5,1.1,1.1,1.1c0.6,0,1.1-0.5,1.2-1.1v-14.3
			C-32.2-15.5-32.7-16-33.4-16C-33.4-16-33.4-16-33.4-16z"/>
	</g>
	<path class="st0" d="M27.9,40.4c-0.6,0-1.1,0.5-1.1,1.1v1.5c-1.4-1.6-3.5-2.5-5.7-2.5c-4.6,0.3-8.1,4.2-7.8,8.8
		c0.3,4.2,3.6,7.5,7.8,7.8c2.2,0,4.2-0.9,5.7-2.5v1.5c0,0.6,0.5,1.1,1.1,1.1s1.1-0.5,1.1-1.1V41.4C29,40.9,28.5,40.4,27.9,40.4z
		 M21.2,54.7c-3.2-0.1-5.8-2.8-5.7-6.1c-0.1-3.2,2.4-6,5.7-6.1c3.4,0.2,5.9,3.2,5.7,6.5C26.6,52.1,24.2,54.5,21.2,54.7L21.2,54.7z"
		/>
	<path class="st0" d="M-19.8,40.4c-0.6,0-1.1,0.5-1.2,1.1v1.5c-1.5-1.6-3.5-2.5-5.7-2.5c-4.5,0.2-8,4.1-7.8,8.6
		c0.2,4.2,3.6,7.6,7.8,7.8c2.2,0,4.2-0.9,5.7-2.5v1.1c0,3-2.4,5.5-5.5,5.6c-0.1,0-0.1,0-0.2,0c-0.8,0-1.5-0.2-2.2-0.5
		c-0.7-0.3-1.3-0.7-1.9-1.3c-0.2-0.2-0.5-0.4-0.8-0.4l0,0c-0.3,0-0.6,0.1-0.8,0.3c-0.4,0.4-0.5,1.1-0.1,1.6c0.7,0.7,1.4,1.2,2.2,1.7
		l0.1,0.1c0.1,0,0.1,0.1,0.2,0.1l0.2,0.1c0.1,0,0.1,0.1,0.2,0.1c0.9,0.4,1.9,0.5,2.8,0.5c0.6,0,1.1-0.1,1.7-0.2h0.1
		c0.5-0.1,1-0.3,1.5-0.5c0.4-0.2,0.8-0.4,1.2-0.7c0.1-0.1,0.2-0.2,0.3-0.2l0.2-0.1c0.2-0.1,0.4-0.3,0.6-0.5c0.2-0.2,0.4-0.4,0.6-0.6
		l0.2-0.2c1.2-1.4,1.8-3.2,1.9-5V41.4C-18.7,40.9-19.2,40.4-19.8,40.4z M-26.5,54.6c-3.2-0.1-5.7-2.8-5.6-6c0,0,0,0,0,0
		c-0.1-3.2,2.4-5.9,5.6-6.1c3.3,0.2,5.9,3.1,5.7,6.4C-21.1,52-23.5,54.4-26.5,54.6z"/>
</g>
</svg>
