<svg xmlns="http://www.w3.org/2000/svg" viewBox="0 0 544 100" shape-rendering="geometricPrecision"><path style="-inkscape-font-specification:'VAGRounded LT Thin, Bold'" d="M52.8567 14.3545c.3342-1.11.8354-2.0917 1.5038-2.9457.6683-.939 1.7543-1.4087 3.258-1.4088 1.5038 0 2.5898.4697 3.2582 1.4088.6683.854 1.1695 1.8358 1.5038 2.9457l21.5537 77.6132h.2506l12.03-77.357c.334-1.8784.9606-3.1164 1.8796-3.7142.919-.5975 1.9214-.8964 3.0075-.8965 1.169 0 2.13.3416 2.882 1.0246.835.5978 1.253 1.537 1.253 2.8176 0 .5124-.167 1.6224-.501 3.33-.251 1.7077-.585 3.757-1.003 6.1476L90.575 97.603c-.3343 1.7077-1.1697 2.9884-2.5062 3.8422-1.3367.854-2.715 1.2808-4.1353 1.2808-1.6704 0-3.091-.3842-4.26-1.1527-1.1697-.7684-2.005-2.092-2.5063-3.9703L57.744 24.4724h-.2507L37.5687 97.603c-.5013 1.8784-1.3367 3.202-2.5063 3.9703-1.1696.7685-2.5898 1.1527-4.2606 1.1527-1.4202 0-2.7986-.427-4.1353-1.2808-1.3367-.8538-2.172-2.1345-2.5062-3.8422L11.5037 23.3198c-.334-1.8784-.6265-3.3726-.877-4.4827-.1672-1.109-.2926-1.963-.376-2.561-.0836-.683-.167-1.195-.2507-1.537v-.896c0-1.28.376-2.22 1.1278-2.817.8354-.683 1.838-1.024 3.0075-1.024 1.086 0 2.0885.299 3.0075.897.919.598 1.5455 1.836 1.8797 3.714l12.03 77.357h.2506l21.554-77.614m89.761 7.685h-.25l-18.546 51.614h37.343L142.618 22.04M114.924 98.5c-.585 1.1953-1.1693 2.22-1.754 3.0737-.5847.7685-1.6708 1.1527-3.258 1.1527-1.3367 0-2.339-.341-3.0075-1.024-.6685-.768-1.0026-1.622-1.0026-2.561 0-.512.083-1.11.25-1.793.167-.683.376-1.366.627-2.049l28.697-78.639c.251-.768.543-1.5362.877-2.305.417-.768.877-1.4512 1.378-2.049.501-.683 1.127-1.238 1.879-1.665.751-.4265 1.712-.64 2.882-.64 1.086 0 2.005.2134 2.757.64.835.427 1.503.982 2.005 1.665.501.598.919 1.281 1.253 2.049.417.769.752 1.537 1.002 2.3057l28.696 78.638c.25.683.459 1.366.626 2.049.167.683.25 1.281.25 1.793 0 .939-.334 1.793-1.0026 2.562-.6685.683-1.671 1.025-3.0076 1.025-1.5874 0-2.715-.384-3.3834-1.152-.669-.854-1.212-1.878-1.629-3.074l-5.89-16.393h-43.358L114.924 98.5m118.5-84.6577c.7516-2.5614 2.2136-3.842 4.386-3.8422 1.42 0 2.506.427 3.258 1.281.8352.769 1.253 1.793 1.253 3.074 0 1.025-.585 3.16-1.7544 6.404l-26.441 76.333c-.4176 1.281-1.0442 2.562-1.8796 3.842-.752 1.195-1.9215 1.793-3.509 1.793s-2.7985-.598-3.634-1.793c-.752-1.281-1.3366-2.562-1.7542-3.842l-26.441-76.332c-1.1695-3.244-1.7543-5.379-1.7543-6.404 0-1.28.376-2.305 1.128-3.073.8353-.854 1.963-1.281 3.3833-1.281 2.172 0 3.634 1.281 4.386 3.842l24.561 73.643h.2507l24.5612-73.643m27.5237 79.663h27.318c1.4202 0 2.548.427 3.3835 1.281.919.769 1.378 1.751 1.378 2.946s-.46 2.22-1.379 3.074c-.836.768-1.964 1.152-3.384 1.152h-30.826c-2.005 0-3.425-.384-4.261-1.152-.836-.854-1.254-2.092-1.254-3.714V15.636c0-1.6224.417-2.8178 1.253-3.586.835-.854 2.255-1.281 4.26-1.281h29.574c1.42 0 2.548.427 3.383 1.2807.919.7686 1.378 1.7506 1.378 2.9458 0 1.195-.46 2.22-1.379 3.0734-.836.769-1.963 1.153-3.384 1.153H261.07v33.043h24.812c1.42 0 2.548.427 3.3833 1.281.919.768 1.378 1.75 1.378 2.946 0 1.195-.4598 2.22-1.3788 3.073-.835.768-1.963 1.152-3.383 1.152h-24.937v32.787M343.071 10c3.7597 0 7.268.5124 10.5266 1.537 3.3413 1.0246 6.2235 2.2627 8.6462 3.714 2.4227 1.3663 4.344 2.8605 5.7644 4.4827 1.42 1.537 2.13 2.8604 2.13 3.9703 0 1.6223-.46 2.8604-1.3788 3.714-.8356.7687-1.7128 1.153-2.6317 1.1528-.919 0-1.964-.5122-3.133-1.537-1.17-1.1098-2.632-2.2624-4.386-3.458-1.671-1.2805-3.801-2.4332-6.391-3.458-2.506-1.1098-5.597-1.6648-9.273-1.665-4.679.0002-8.856 1.1956-12.531 3.5862-3.593 2.3055-6.6 5.3365-9.023 9.0933-2.423 3.6716-4.261 7.8553-5.514 12.5513-1.253 4.696-1.88 9.3495-1.88 13.96 0 4.6962.5843 9.2643 1.754 13.704 1.1693 4.3547 2.9654 8.2396 5.3882 11.655 2.506 3.4153 5.68 6.1475 9.523 8.1967s8.479 3.0738 13.909 3.0738c3.926 0 7.184-.469 9.774-1.408 2.673-.939 4.887-1.964 6.641-3.074 1.838-1.11 3.3-2.134 4.386-3.073 1.086-.939 2.046-1.409 2.882-1.409 1.169 0 2.088.385 2.757 1.153.668.683 1.002 1.836 1.002 3.458 0 1.025-.71 2.263-2.13 3.715-1.337 1.452-3.258 2.86-5.764 4.226-2.423 1.281-5.347 2.434-8.772 3.458-3.425.939-7.185 1.409-11.278 1.409-6.851 0-12.782-1.195-17.795-3.586-5.0126-2.476-9.148-5.763-12.406-9.862-3.258-4.098-5.681-8.88-7.268-14.344-1.587-5.464-2.381-11.227-2.381-17.29 0-5.976.794-11.825 2.381-17.546 1.587-5.72 3.968-10.801 7.143-15.24 3.258-4.44 7.31-8.026 12.1555-10.758 4.848-2.734 10.5706-4.1 17.17-4.1m73.397 0c-6.2656 0-11.7694 1.314-16.531 3.961-4.762 2.647-8.7318 6.154-11.9064 10.508-3.09 4.353-5.443 9.3-7.03 14.85-1.5874 5.549-2.375 11.249-2.375 17.055 0 5.526.718 10.93 2.156 16.225l15-.032c1.66-12.473 3.133-21.904 4.4376-27.947.7423-3.44 1.3972-5.956 2.2184-8.017.4108-1.03.8317-1.958 1.594-2.97.7623-1.012 2.1575-2.499 4.5938-2.715 2.436-.215 4.412 1.273 5.281 2.3.869 1.027 1.234 1.87 1.593 2.747.718 1.755 1.189 3.63 1.656 5.845.932 4.429 1.738 10.128 2.593 16.193 1.319 9.352 2.974 19.769 4.531 26.126.855-2.043 1.768-4.152 2.718-7.442a5.345 5.4628 0 0 1 5.125-3.897l19.9685.032c1.479-5.367 2.2184-10.844 2.2185-16.449 0-5.806-.788-11.506-2.375-17.056-1.5874-5.55-3.9817-10.497-7.1563-14.852-3.091-4.354-7.019-7.861-11.781-10.508-4.762-2.646-10.266-3.96-16.531-3.96zm-7.656 47.206c-.939 5.735-1.9443 12.532-3.0938 21.527a5.345 5.4628 0 0 1-5.3127 4.759l-15.3124.032c.889 1.649 1.869 3.222 2.938 4.727 3.175 4.355 7.145 7.861 11.907 10.508 4.762 2.647 10.2657 3.961 16.5314 3.961 6.266 0 11.7695-1.314 16.531-3.96 4.762-2.647 8.69-6.1534 11.782-10.508 1.045-1.4334 2.002-2.9403 2.875-4.5033l-11.688-.032c-1.942 6.375-3.6107 10.903-6.844 13.893-.984.91-2.309 1.776-4.031 2.076-1.722.299-3.6537-.194-4.938-.99-2.5683-1.594-3.435-3.592-4.3123-5.622-3.51-8.118-4.952-21.421-6.656-33.504-.131-.924-.2468-1.465-.375-2.364zm67.76 39.629c0 3.928-1.503 5.892-4.511 5.892-3.007 0-4.511-1.964-4.511-5.891V15.379c0-1.7928.418-3.1162 1.253-3.9702.919-.939 2.005-1.4087 3.258-1.4088 1.253 0 2.256.3416 3.0075 1.0246.8357.5978 1.5876 1.3662 2.256 2.3053l47.87 71.593h.251V15.891c0-3.9276 1.504-5.8914 4.5115-5.8915 3.0076 0 4.511 1.964 4.5114 5.8913v81.1994c0 2.22-.418 3.7142-1.2534 4.4826-.752.7685-1.754 1.1527-3.007 1.1527-1.17 0-2.089-.2563-2.757-.7686-.669-.598-1.379-1.452-2.1308-2.562l-48.496-72.49h-.2508v69.929" font-size="40" font-weight="bold" fill="#ffffff" font-family="VAGRounded LT Thin"></path></svg>
